<svg id="visual" viewBox="0 0 900 600" width="900" height="600" xmlns="http://www.w3.org/2000/svg" xmlns:xlink="http://www.w3.org/1999/xlink" version="1.1"><g stroke-width="1" stroke-linejoin="bevel"><path d="M425 279L464 372L471 275Z" fill="#946774" stroke="#946774"></path><path d="M425 279L376 436L464 372Z" fill="#5f485e" stroke="#5f485e"></path><path d="M471 275L401 190L425 279Z" fill="#2d2c3f" stroke="#2d2c3f"></path><path d="M425 279L310 279L376 436Z" fill="#2d2c3f" stroke="#2d2c3f"></path><path d="M613 269L512 193L471 275Z" fill="#7a576a" stroke="#7a576a"></path><path d="M471 275L512 193L401 190Z" fill="#e6ba95" stroke="#e6ba95"></path><path d="M401 190L310 279L425 279Z" fill="#2d2c3f" stroke="#2d2c3f"></path><path d="M583 470L578 418L471 528Z" fill="#e6ba95" stroke="#e6ba95"></path><path d="M464 372L613 269L471 275Z" fill="#c48d84" stroke="#c48d84"></path><path d="M578 418L613 269L464 372Z" fill="#7a576a" stroke="#7a576a"></path><path d="M401 190L293 225L310 279Z" fill="#00101c" stroke="#00101c"></path><path d="M304 498L402 509L376 436Z" fill="#c48d84" stroke="#c48d84"></path><path d="M376 436L402 509L464 372Z" fill="#946774" stroke="#946774"></path><path d="M471 528L578 418L464 372Z" fill="#ad797c" stroke="#ad797c"></path><path d="M578 418L690 296L613 269Z" fill="#e6ba95" stroke="#e6ba95"></path><path d="M208 294L266 402L310 279Z" fill="#946774" stroke="#946774"></path><path d="M310 279L266 402L376 436Z" fill="#171f2e" stroke="#171f2e"></path><path d="M402 509L471 528L464 372Z" fill="#2d2c3f" stroke="#2d2c3f"></path><path d="M690 296L636 221L613 269Z" fill="#453a50" stroke="#453a50"></path><path d="M613 269L636 221L512 193Z" fill="#5f485e" stroke="#5f485e"></path><path d="M633 88L471 103L512 193Z" fill="#453a50" stroke="#453a50"></path><path d="M512 193L471 103L401 190Z" fill="#e6ba95" stroke="#e6ba95"></path><path d="M401 190L361 120L293 225Z" fill="#171f2e" stroke="#171f2e"></path><path d="M471 103L361 120L401 190Z" fill="#2d2c3f" stroke="#2d2c3f"></path><path d="M266 402L304 498L376 436Z" fill="#d7a28c" stroke="#d7a28c"></path><path d="M402 509L432 600L471 528Z" fill="#2d2c3f" stroke="#2d2c3f"></path><path d="M718 431L690 296L578 418Z" fill="#946774" stroke="#946774"></path><path d="M201 173L208 294L293 225Z" fill="#5f485e" stroke="#5f485e"></path><path d="M293 225L208 294L310 279Z" fill="#171f2e" stroke="#171f2e"></path><path d="M266 402L183 434L304 498Z" fill="#d7a28c" stroke="#d7a28c"></path><path d="M690 296L671 207L636 221Z" fill="#946774" stroke="#946774"></path><path d="M636 221L633 88L512 193Z" fill="#e6ba95" stroke="#e6ba95"></path><path d="M330 600L432 600L402 509Z" fill="#453a50" stroke="#453a50"></path><path d="M471 528L562 600L583 470Z" fill="#ad797c" stroke="#ad797c"></path><path d="M432 600L488 600L471 528Z" fill="#453a50" stroke="#453a50"></path><path d="M704 506L718 431L583 470Z" fill="#e6ba95" stroke="#e6ba95"></path><path d="M583 470L718 431L578 418Z" fill="#c48d84" stroke="#c48d84"></path><path d="M208 294L183 434L266 402Z" fill="#946774" stroke="#946774"></path><path d="M304 498L330 600L402 509Z" fill="#946774" stroke="#946774"></path><path d="M263 66L201 173L293 225Z" fill="#e6ba95" stroke="#e6ba95"></path><path d="M208 294L125 407L183 434Z" fill="#946774" stroke="#946774"></path><path d="M671 207L633 88L636 221Z" fill="#5f485e" stroke="#5f485e"></path><path d="M488 600L562 600L471 528Z" fill="#d7a28c" stroke="#d7a28c"></path><path d="M229 600L330 600L304 498Z" fill="#7a576a" stroke="#7a576a"></path><path d="M663 600L704 506L583 470Z" fill="#e6ba95" stroke="#e6ba95"></path><path d="M405 0L263 66L361 120Z" fill="#00101c" stroke="#00101c"></path><path d="M361 120L263 66L293 225Z" fill="#171f2e" stroke="#171f2e"></path><path d="M405 0L361 120L471 103Z" fill="#d7a28c" stroke="#d7a28c"></path><path d="M629 0L461 0L471 103Z" fill="#171f2e" stroke="#171f2e"></path><path d="M136 183L133 271L201 173Z" fill="#e6ba95" stroke="#e6ba95"></path><path d="M201 173L133 271L208 294Z" fill="#171f2e" stroke="#171f2e"></path><path d="M461 0L405 0L471 103Z" fill="#946774" stroke="#946774"></path><path d="M671 207L678 80L633 88Z" fill="#e6ba95" stroke="#e6ba95"></path><path d="M633 88L629 0L471 103Z" fill="#c48d84" stroke="#c48d84"></path><path d="M792 182L678 80L671 207Z" fill="#5f485e" stroke="#5f485e"></path><path d="M792 182L671 207L690 296Z" fill="#5f485e" stroke="#5f485e"></path><path d="M133 271L125 407L208 294Z" fill="#5f485e" stroke="#5f485e"></path><path d="M183 434L186 533L304 498Z" fill="#453a50" stroke="#453a50"></path><path d="M133 522L186 533L183 434Z" fill="#00101c" stroke="#00101c"></path><path d="M181 92L136 183L201 173Z" fill="#7a576a" stroke="#7a576a"></path><path d="M133 271L0 323L125 407Z" fill="#e6ba95" stroke="#e6ba95"></path><path d="M562 600L663 600L583 470Z" fill="#946774" stroke="#946774"></path><path d="M183 0L181 92L263 66Z" fill="#ad797c" stroke="#ad797c"></path><path d="M263 66L181 92L201 173Z" fill="#7a576a" stroke="#7a576a"></path><path d="M186 533L229 600L304 498Z" fill="#2d2c3f" stroke="#2d2c3f"></path><path d="M778 600L775 487L704 506Z" fill="#7a576a" stroke="#7a576a"></path><path d="M704 506L775 487L718 431Z" fill="#e6ba95" stroke="#e6ba95"></path><path d="M718 431L815 321L690 296Z" fill="#7a576a" stroke="#7a576a"></path><path d="M811 438L815 321L718 431Z" fill="#c48d84" stroke="#c48d84"></path><path d="M678 80L629 0L633 88Z" fill="#d7a28c" stroke="#d7a28c"></path><path d="M815 321L792 182L690 296Z" fill="#7a576a" stroke="#7a576a"></path><path d="M678 80L737 0L629 0Z" fill="#c48d84" stroke="#c48d84"></path><path d="M405 0L266 0L263 66Z" fill="#453a50" stroke="#453a50"></path><path d="M125 407L133 522L183 434Z" fill="#c48d84" stroke="#c48d84"></path><path d="M186 533L88 600L229 600Z" fill="#171f2e" stroke="#171f2e"></path><path d="M775 487L811 438L718 431Z" fill="#ad797c" stroke="#ad797c"></path><path d="M181 92L105 128L136 183Z" fill="#7a576a" stroke="#7a576a"></path><path d="M0 228L0 323L133 271Z" fill="#2d2c3f" stroke="#2d2c3f"></path><path d="M125 407L0 484L133 522Z" fill="#453a50" stroke="#453a50"></path><path d="M134 0L105 128L181 92Z" fill="#ad797c" stroke="#ad797c"></path><path d="M900 121L809 112L792 182Z" fill="#2d2c3f" stroke="#2d2c3f"></path><path d="M792 182L809 112L678 80Z" fill="#c48d84" stroke="#c48d84"></path><path d="M266 0L183 0L263 66Z" fill="#ad797c" stroke="#ad797c"></path><path d="M663 600L778 600L704 506Z" fill="#7a576a" stroke="#7a576a"></path><path d="M775 487L900 522L811 438Z" fill="#946774" stroke="#946774"></path><path d="M809 112L737 0L678 80Z" fill="#171f2e" stroke="#171f2e"></path><path d="M900 387L900 278L815 321Z" fill="#d7a28c" stroke="#d7a28c"></path><path d="M815 321L900 278L792 182Z" fill="#e6ba95" stroke="#e6ba95"></path><path d="M900 387L815 321L811 438Z" fill="#2d2c3f" stroke="#2d2c3f"></path><path d="M0 228L133 271L136 183Z" fill="#c48d84" stroke="#c48d84"></path><path d="M900 522L900 387L811 438Z" fill="#453a50" stroke="#453a50"></path><path d="M183 0L134 0L181 92Z" fill="#171f2e" stroke="#171f2e"></path><path d="M105 128L0 228L136 183Z" fill="#5f485e" stroke="#5f485e"></path><path d="M0 484L88 600L133 522Z" fill="#453a50" stroke="#453a50"></path><path d="M133 522L88 600L186 533Z" fill="#c48d84" stroke="#c48d84"></path><path d="M0 323L0 400L125 407Z" fill="#e6ba95" stroke="#e6ba95"></path><path d="M0 121L0 228L105 128Z" fill="#2d2c3f" stroke="#2d2c3f"></path><path d="M900 278L900 203L792 182Z" fill="#e6ba95" stroke="#e6ba95"></path><path d="M809 112L834 0L737 0Z" fill="#946774" stroke="#946774"></path><path d="M0 400L0 484L125 407Z" fill="#00101c" stroke="#00101c"></path><path d="M778 600L900 522L775 487Z" fill="#5f485e" stroke="#5f485e"></path><path d="M900 203L900 121L792 182Z" fill="#2d2c3f" stroke="#2d2c3f"></path><path d="M0 0L0 121L105 128Z" fill="#453a50" stroke="#453a50"></path><path d="M900 121L834 0L809 112Z" fill="#e6ba95" stroke="#e6ba95"></path><path d="M778 600L900 600L900 522Z" fill="#c48d84" stroke="#c48d84"></path><path d="M0 484L0 600L88 600Z" fill="#7a576a" stroke="#7a576a"></path><path d="M900 121L900 0L834 0Z" fill="#171f2e" stroke="#171f2e"></path><path d="M134 0L0 0L105 128Z" fill="#5f485e" stroke="#5f485e"></path></g></svg>