<svg version="1.1" id="Layer_1" xmlns="http://www.w3.org/2000/svg" xmlns:xlink="http://www.w3.org/1999/xlink" x="0px" y="0px"
	 width="100%" viewBox="0 0 150 191" enable-background="new 0 0 150 191" xml:space="preserve">
<path fill="none" opacity="1.000000" stroke="#000000" stroke-linecap="round" stroke-linejoin="round" stroke-width="2.000000"
	d="
M33.000000,114.500000 
	C63.669205,114.169800 94.338409,113.839592 125.250000,113.506775 
	C125.250000,80.335037 125.250000,47.667519 125.250000,15.000000 
	C92.664230,15.000000 59.830883,15.000000 26.463356,15.000000 
	C26.665318,48.333321 26.416140,81.167511 25.801857,113.926880 
	C28.000000,114.747673 30.000000,114.749725 32.000000,114.000000 
"/>
<path fill="none" opacity="1.000000" stroke="#000000" stroke-linecap="round" stroke-linejoin="round" stroke-width="2.000000"
	d="
M32.500000,114.500000 
	C32.500000,116.333336 32.500000,118.166664 32.500000,120.250000 
	C65.333336,120.250000 98.166664,120.250000 131.497147,120.250000 
	C131.530518,87.168510 131.289963,54.333115 132.295120,20.822245 
	C98.667603,21.851402 65.831001,21.373703 33.392841,21.531902 
	C32.284313,24.124434 32.504578,26.322916 32.504066,28.500002 
	C32.497818,55.166668 32.514435,81.833359 32.465294,108.499939 
	C32.462238,110.156746 33.058701,111.922539 32.000000,113.500000 
"/>
<path fill="none" opacity="1.000000" stroke="#000000" stroke-linecap="round" stroke-linejoin="round" stroke-width="2.000000"
	d="
M73.500000,145.000000 
	C68.700058,143.864929 63.825981,144.879883 58.750000,144.401810 
	C58.750000,153.327042 58.750000,162.163528 58.750000,171.500000 
	C63.822918,171.500000 69.161461,171.500000 74.500000,171.500000 
"/>
<path fill="none" opacity="1.000000" stroke="#000000" stroke-linecap="round" stroke-linejoin="round" stroke-width="2.000000"
	d="
M102.500000,143.500000 
	C102.500000,152.666672 102.500000,161.833328 102.500000,171.500000 
	C96.843140,171.500000 91.171570,171.500000 85.500000,171.500000 
"/>
<path fill="none" opacity="1.000000" stroke="#000000" stroke-linecap="round" stroke-linejoin="round" stroke-width="3.000000"
	d="
M93.000000,66.000000 
	C83.666664,66.000000 74.333336,66.000000 65.000000,66.000000 
"/>
<path fill="none" opacity="1.000000" stroke="#000000" stroke-linecap="round" stroke-linejoin="round" stroke-width="3.000000"
	d="
M64.000000,40.500000 
	C64.000000,58.166668 64.000000,75.833336 64.000000,93.500000 
"/>
<path fill="none" opacity="1.000000" stroke="#000000" stroke-linecap="round" stroke-linejoin="round" stroke-width="3.000000"
	d="
M94.000000,40.500000 
	C94.000000,58.166668 94.000000,75.833336 94.000000,93.500000 
"/>
<path fill="none" opacity="1.000000" stroke="#000000" stroke-linecap="round" stroke-linejoin="round" stroke-width="2.000000"
	d="
M82.500000,143.500000 
	C82.500000,152.833328 82.500000,162.166672 82.500000,171.500000 
"/>
<path fill="none" opacity="1.000000" stroke="#000000" stroke-linecap="round" stroke-linejoin="round" stroke-width="2.000000"
	d="
M125.500000,164.500000 
	C126.158714,166.669052 126.817436,168.838089 127.625824,171.500000 
	C122.511108,171.500000 117.505554,171.500000 112.500000,171.500000 
"/>
<path fill="none" opacity="1.000000" stroke="#000000" stroke-linecap="round" stroke-linejoin="round" stroke-width="2.000000"
	d="
M83.500000,146.000000 
	C86.500000,152.000000 89.500000,158.000000 92.500000,164.000000 
"/>
<path fill="none" opacity="1.000000" stroke="#000000" stroke-linecap="round" stroke-linejoin="round" stroke-width="2.000000"
	d="
M101.500000,146.000000 
	C97.761101,152.158966 95.094788,158.812973 92.500000,165.500000 
"/>
<path fill="none" opacity="1.000000" stroke="#000000" stroke-linecap="round" stroke-linejoin="round" stroke-width="2.000000"
	d="
M118.500008,144.500000 
	C116.166679,151.166672 113.833344,157.833344 111.500008,164.500000 
"/>
<path fill="none" opacity="1.000000" stroke="#000000" stroke-linecap="round" stroke-linejoin="round" stroke-width="2.000000"
	d="
M34.500000,157.500000 
	C39.166668,157.500000 43.833332,157.500000 48.500000,157.500000 
"/>
<path fill="none" opacity="1.000000" stroke="#000000" stroke-linecap="round" stroke-linejoin="round" stroke-width="2.000000"
	d="
M49.500000,144.500000 
	C49.500000,153.500000 49.500000,162.500000 49.500000,171.500000 
"/>
<path fill="none" opacity="1.000000" stroke="#000000" stroke-linecap="round" stroke-linejoin="round" stroke-width="2.000000"
	d="
M33.500000,144.500000 
	C33.500000,153.500000 33.500000,162.500000 33.500000,171.500000 
"/>
<path fill="none" opacity="1.000000" stroke="#000000" stroke-linecap="round" stroke-linejoin="round" stroke-width="2.000000"
	d="
M63.500000,156.000000 
	C66.445168,157.153687 69.508720,156.176346 72.500000,156.500000 
"/>
<path fill="none" opacity="1.000000" stroke="#000000" stroke-linecap="round" stroke-linejoin="round" stroke-width="2.000000"
	d="
M68.500000,150.500000 
	C66.166664,152.500000 63.833328,154.500000 61.499996,156.500000 
"/>
</svg>